<svg xmlns="http://www.w3.org/2000/svg" width="256" height="256" viewBox="0 0 256 256">
  <defs>
    <linearGradient id="bg" x1="0" y1="0" x2="256" y2="256" gradientUnits="userSpaceOnUse">
      <stop offset="0%" stop-color="#0a0e17"/>
      <stop offset="100%" stop-color="#12122a"/>
    </linearGradient>
    <radialGradient id="glow" cx="50%" cy="50%" r="45%">
      <stop offset="0%" stop-color="rgba(255,60,172,0.18)"/>
      <stop offset="50%" stop-color="rgba(0,245,212,0.08)"/>
      <stop offset="100%" stop-color="transparent"/>
    </radialGradient>
    <linearGradient id="film" x1="71.68" y1="74.24000000000001" x2="184.32" y2="161.28000000000003" gradientUnits="userSpaceOnUse">
      <stop offset="0%" stop-color="#ff3cac"/>
      <stop offset="50%" stop-color="#784ba0"/>
      <stop offset="100%" stop-color="#00f5d4"/>
    </linearGradient>
  </defs>
  <rect width="256" height="256" rx="51.2" fill="url(#bg)"/>
  <rect width="256" height="256" rx="51.2" fill="url(#glow)"/>
  <rect x="71.68" y="74.24000000000001" width="112.64" height="87.04" rx="7.68" fill="url(#film)"/>
  <rect x="82.944" y="79.36000000000001" width="8.192" height="10.649600000000001" rx="1" fill="rgba(10,14,23,0.7)"/><rect x="99.03542857142858" y="79.36000000000001" width="8.192" height="10.649600000000001" rx="1" fill="rgba(10,14,23,0.7)"/><rect x="115.12685714285715" y="79.36000000000001" width="8.192" height="10.649600000000001" rx="1" fill="rgba(10,14,23,0.7)"/><rect x="131.21828571428574" y="79.36000000000001" width="8.192" height="10.649600000000001" rx="1" fill="rgba(10,14,23,0.7)"/><rect x="147.3097142857143" y="79.36000000000001" width="8.192" height="10.649600000000001" rx="1" fill="rgba(10,14,23,0.7)"/><rect x="163.40114285714287" y="79.36000000000001" width="8.192" height="10.649600000000001" rx="1" fill="rgba(10,14,23,0.7)"/>
  <rect x="82.944" y="145.51040000000003" width="8.192" height="10.649600000000001" rx="1" fill="rgba(10,14,23,0.7)"/><rect x="99.03542857142858" y="145.51040000000003" width="8.192" height="10.649600000000001" rx="1" fill="rgba(10,14,23,0.7)"/><rect x="115.12685714285715" y="145.51040000000003" width="8.192" height="10.649600000000001" rx="1" fill="rgba(10,14,23,0.7)"/><rect x="131.21828571428574" y="145.51040000000003" width="8.192" height="10.649600000000001" rx="1" fill="rgba(10,14,23,0.7)"/><rect x="147.3097142857143" y="145.51040000000003" width="8.192" height="10.649600000000001" rx="1" fill="rgba(10,14,23,0.7)"/><rect x="163.40114285714287" y="145.51040000000003" width="8.192" height="10.649600000000001" rx="1" fill="rgba(10,14,23,0.7)"/>
  <polygon points="118.784,94.72 118.784,140.8 146.432,117.76" fill="rgba(255,255,255,0.95)"/>
  <text x="128" y="199.68" font-family="Arial,Helvetica,sans-serif" font-size="33.28" font-weight="bold" fill="white" text-anchor="middle" dominant-baseline="middle">CV</text>
</svg>