<svg xmlns="http://www.w3.org/2000/svg" width="144" height="144" viewBox="0 0 144 144">
  <defs>
    <linearGradient id="bg" x1="0" y1="0" x2="144" y2="144" gradientUnits="userSpaceOnUse">
      <stop offset="0%" stop-color="#0a0e17"/>
      <stop offset="100%" stop-color="#12122a"/>
    </linearGradient>
    <radialGradient id="glow" cx="50%" cy="50%" r="45%">
      <stop offset="0%" stop-color="rgba(255,60,172,0.18)"/>
      <stop offset="50%" stop-color="rgba(0,245,212,0.08)"/>
      <stop offset="100%" stop-color="transparent"/>
    </radialGradient>
    <linearGradient id="film" x1="40.32" y1="41.75999999999999" x2="103.68" y2="90.72" gradientUnits="userSpaceOnUse">
      <stop offset="0%" stop-color="#ff3cac"/>
      <stop offset="50%" stop-color="#784ba0"/>
      <stop offset="100%" stop-color="#00f5d4"/>
    </linearGradient>
  </defs>
  <rect width="144" height="144" rx="28.8" fill="url(#bg)"/>
  <rect width="144" height="144" rx="28.8" fill="url(#glow)"/>
  <rect x="40.32" y="41.75999999999999" width="63.36" height="48.96" rx="4.32" fill="url(#film)"/>
  <rect x="46.656" y="44.63999999999999" width="4.6080000000000005" height="5.990400000000001" rx="1" fill="rgba(10,14,23,0.7)"/><rect x="55.70742857142857" y="44.63999999999999" width="4.6080000000000005" height="5.990400000000001" rx="1" fill="rgba(10,14,23,0.7)"/><rect x="64.75885714285715" y="44.63999999999999" width="4.6080000000000005" height="5.990400000000001" rx="1" fill="rgba(10,14,23,0.7)"/><rect x="73.81028571428573" y="44.63999999999999" width="4.6080000000000005" height="5.990400000000001" rx="1" fill="rgba(10,14,23,0.7)"/><rect x="82.86171428571429" y="44.63999999999999" width="4.6080000000000005" height="5.990400000000001" rx="1" fill="rgba(10,14,23,0.7)"/><rect x="91.91314285714286" y="44.63999999999999" width="4.6080000000000005" height="5.990400000000001" rx="1" fill="rgba(10,14,23,0.7)"/>
  <rect x="46.656" y="81.84960000000001" width="4.6080000000000005" height="5.990400000000001" rx="1" fill="rgba(10,14,23,0.7)"/><rect x="55.70742857142857" y="81.84960000000001" width="4.6080000000000005" height="5.990400000000001" rx="1" fill="rgba(10,14,23,0.7)"/><rect x="64.75885714285715" y="81.84960000000001" width="4.6080000000000005" height="5.990400000000001" rx="1" fill="rgba(10,14,23,0.7)"/><rect x="73.81028571428573" y="81.84960000000001" width="4.6080000000000005" height="5.990400000000001" rx="1" fill="rgba(10,14,23,0.7)"/><rect x="82.86171428571429" y="81.84960000000001" width="4.6080000000000005" height="5.990400000000001" rx="1" fill="rgba(10,14,23,0.7)"/><rect x="91.91314285714286" y="81.84960000000001" width="4.6080000000000005" height="5.990400000000001" rx="1" fill="rgba(10,14,23,0.7)"/>
  <polygon points="66.816,53.279999999999994 66.816,79.19999999999999 82.368,66.24" fill="rgba(255,255,255,0.95)"/>
  <text x="72" y="112.32" font-family="Arial,Helvetica,sans-serif" font-size="18.72" font-weight="bold" fill="white" text-anchor="middle" dominant-baseline="middle">CV</text>
</svg>