<svg xmlns="http://www.w3.org/2000/svg" width="192" height="192" viewBox="0 0 192 192">
  <defs>
    <linearGradient id="bg" x1="0" y1="0" x2="192" y2="192" gradientUnits="userSpaceOnUse">
      <stop offset="0%" stop-color="#0a0e17"/>
      <stop offset="100%" stop-color="#12122a"/>
    </linearGradient>
    <radialGradient id="glow" cx="50%" cy="50%" r="45%">
      <stop offset="0%" stop-color="rgba(255,60,172,0.18)"/>
      <stop offset="50%" stop-color="rgba(0,245,212,0.08)"/>
      <stop offset="100%" stop-color="transparent"/>
    </radialGradient>
    <linearGradient id="film" x1="53.76" y1="55.67999999999999" x2="138.24" y2="120.96" gradientUnits="userSpaceOnUse">
      <stop offset="0%" stop-color="#ff3cac"/>
      <stop offset="50%" stop-color="#784ba0"/>
      <stop offset="100%" stop-color="#00f5d4"/>
    </linearGradient>
  </defs>
  <rect width="192" height="192" rx="38.400000000000006" fill="url(#bg)"/>
  <rect width="192" height="192" rx="38.400000000000006" fill="url(#glow)"/>
  <rect x="53.76" y="55.67999999999999" width="84.48" height="65.28" rx="5.76" fill="url(#film)"/>
  <rect x="62.208" y="59.519999999999996" width="6.144" height="7.9872000000000005" rx="1" fill="rgba(10,14,23,0.7)"/><rect x="74.27657142857143" y="59.519999999999996" width="6.144" height="7.9872000000000005" rx="1" fill="rgba(10,14,23,0.7)"/><rect x="86.34514285714286" y="59.519999999999996" width="6.144" height="7.9872000000000005" rx="1" fill="rgba(10,14,23,0.7)"/><rect x="98.41371428571429" y="59.519999999999996" width="6.144" height="7.9872000000000005" rx="1" fill="rgba(10,14,23,0.7)"/><rect x="110.48228571428572" y="59.519999999999996" width="6.144" height="7.9872000000000005" rx="1" fill="rgba(10,14,23,0.7)"/><rect x="122.55085714285715" y="59.519999999999996" width="6.144" height="7.9872000000000005" rx="1" fill="rgba(10,14,23,0.7)"/>
  <rect x="62.208" y="109.13279999999999" width="6.144" height="7.9872000000000005" rx="1" fill="rgba(10,14,23,0.7)"/><rect x="74.27657142857143" y="109.13279999999999" width="6.144" height="7.9872000000000005" rx="1" fill="rgba(10,14,23,0.7)"/><rect x="86.34514285714286" y="109.13279999999999" width="6.144" height="7.9872000000000005" rx="1" fill="rgba(10,14,23,0.7)"/><rect x="98.41371428571429" y="109.13279999999999" width="6.144" height="7.9872000000000005" rx="1" fill="rgba(10,14,23,0.7)"/><rect x="110.48228571428572" y="109.13279999999999" width="6.144" height="7.9872000000000005" rx="1" fill="rgba(10,14,23,0.7)"/><rect x="122.55085714285715" y="109.13279999999999" width="6.144" height="7.9872000000000005" rx="1" fill="rgba(10,14,23,0.7)"/>
  <polygon points="89.088,71.03999999999999 89.088,105.6 109.824,88.32" fill="rgba(255,255,255,0.95)"/>
  <text x="96" y="149.76" font-family="Arial,Helvetica,sans-serif" font-size="24.96" font-weight="bold" fill="white" text-anchor="middle" dominant-baseline="middle">CV</text>
</svg>