<svg xmlns="http://www.w3.org/2000/svg" width="512" height="512" viewBox="0 0 512 512">
  <defs>
    <linearGradient id="bg" x1="0" y1="0" x2="512" y2="512" gradientUnits="userSpaceOnUse">
      <stop offset="0%" stop-color="#0a0e17"/>
      <stop offset="100%" stop-color="#12122a"/>
    </linearGradient>
    <radialGradient id="glow" cx="50%" cy="50%" r="45%">
      <stop offset="0%" stop-color="rgba(255,60,172,0.18)"/>
      <stop offset="50%" stop-color="rgba(0,245,212,0.08)"/>
      <stop offset="100%" stop-color="transparent"/>
    </radialGradient>
    <linearGradient id="film" x1="143.36" y1="148.48000000000002" x2="368.64" y2="322.56000000000006" gradientUnits="userSpaceOnUse">
      <stop offset="0%" stop-color="#ff3cac"/>
      <stop offset="50%" stop-color="#784ba0"/>
      <stop offset="100%" stop-color="#00f5d4"/>
    </linearGradient>
  </defs>
  <rect width="512" height="512" rx="102.4" fill="url(#bg)"/>
  <rect width="512" height="512" rx="102.4" fill="url(#glow)"/>
  <rect x="143.36" y="148.48000000000002" width="225.28" height="174.08" rx="15.36" fill="url(#film)"/>
  <rect x="165.888" y="158.72000000000003" width="16.384" height="21.299200000000003" rx="1" fill="rgba(10,14,23,0.7)"/><rect x="198.07085714285716" y="158.72000000000003" width="16.384" height="21.299200000000003" rx="1" fill="rgba(10,14,23,0.7)"/><rect x="230.2537142857143" y="158.72000000000003" width="16.384" height="21.299200000000003" rx="1" fill="rgba(10,14,23,0.7)"/><rect x="262.4365714285715" y="158.72000000000003" width="16.384" height="21.299200000000003" rx="1" fill="rgba(10,14,23,0.7)"/><rect x="294.6194285714286" y="158.72000000000003" width="16.384" height="21.299200000000003" rx="1" fill="rgba(10,14,23,0.7)"/><rect x="326.80228571428574" y="158.72000000000003" width="16.384" height="21.299200000000003" rx="1" fill="rgba(10,14,23,0.7)"/>
  <rect x="165.888" y="291.02080000000007" width="16.384" height="21.299200000000003" rx="1" fill="rgba(10,14,23,0.7)"/><rect x="198.07085714285716" y="291.02080000000007" width="16.384" height="21.299200000000003" rx="1" fill="rgba(10,14,23,0.7)"/><rect x="230.2537142857143" y="291.02080000000007" width="16.384" height="21.299200000000003" rx="1" fill="rgba(10,14,23,0.7)"/><rect x="262.4365714285715" y="291.02080000000007" width="16.384" height="21.299200000000003" rx="1" fill="rgba(10,14,23,0.7)"/><rect x="294.6194285714286" y="291.02080000000007" width="16.384" height="21.299200000000003" rx="1" fill="rgba(10,14,23,0.7)"/><rect x="326.80228571428574" y="291.02080000000007" width="16.384" height="21.299200000000003" rx="1" fill="rgba(10,14,23,0.7)"/>
  <polygon points="237.568,189.44 237.568,281.6 292.864,235.52" fill="rgba(255,255,255,0.95)"/>
  <text x="256" y="399.36" font-family="Arial,Helvetica,sans-serif" font-size="66.56" font-weight="bold" fill="white" text-anchor="middle" dominant-baseline="middle">CV</text>
</svg>