<svg xmlns="http://www.w3.org/2000/svg" width="72" height="72" viewBox="0 0 72 72">
  <defs>
    <linearGradient id="bg" x1="0" y1="0" x2="72" y2="72" gradientUnits="userSpaceOnUse">
      <stop offset="0%" stop-color="#0a0e17"/>
      <stop offset="100%" stop-color="#12122a"/>
    </linearGradient>
    <radialGradient id="glow" cx="50%" cy="50%" r="45%">
      <stop offset="0%" stop-color="rgba(255,60,172,0.18)"/>
      <stop offset="50%" stop-color="rgba(0,245,212,0.08)"/>
      <stop offset="100%" stop-color="transparent"/>
    </radialGradient>
    <linearGradient id="film" x1="20.16" y1="20.879999999999995" x2="51.84" y2="45.36" gradientUnits="userSpaceOnUse">
      <stop offset="0%" stop-color="#ff3cac"/>
      <stop offset="50%" stop-color="#784ba0"/>
      <stop offset="100%" stop-color="#00f5d4"/>
    </linearGradient>
  </defs>
  <rect width="72" height="72" rx="14.4" fill="url(#bg)"/>
  <rect width="72" height="72" rx="14.4" fill="url(#glow)"/>
  <rect x="20.16" y="20.879999999999995" width="31.68" height="24.48" rx="2.16" fill="url(#film)"/>
  <rect x="23.328" y="22.319999999999997" width="2.3040000000000003" height="2.9952000000000005" rx="1" fill="rgba(10,14,23,0.7)"/><rect x="27.853714285714286" y="22.319999999999997" width="2.3040000000000003" height="2.9952000000000005" rx="1" fill="rgba(10,14,23,0.7)"/><rect x="32.379428571428576" y="22.319999999999997" width="2.3040000000000003" height="2.9952000000000005" rx="1" fill="rgba(10,14,23,0.7)"/><rect x="36.90514285714286" y="22.319999999999997" width="2.3040000000000003" height="2.9952000000000005" rx="1" fill="rgba(10,14,23,0.7)"/><rect x="41.43085714285714" y="22.319999999999997" width="2.3040000000000003" height="2.9952000000000005" rx="1" fill="rgba(10,14,23,0.7)"/><rect x="45.95657142857143" y="22.319999999999997" width="2.3040000000000003" height="2.9952000000000005" rx="1" fill="rgba(10,14,23,0.7)"/>
  <rect x="23.328" y="40.924800000000005" width="2.3040000000000003" height="2.9952000000000005" rx="1" fill="rgba(10,14,23,0.7)"/><rect x="27.853714285714286" y="40.924800000000005" width="2.3040000000000003" height="2.9952000000000005" rx="1" fill="rgba(10,14,23,0.7)"/><rect x="32.379428571428576" y="40.924800000000005" width="2.3040000000000003" height="2.9952000000000005" rx="1" fill="rgba(10,14,23,0.7)"/><rect x="36.90514285714286" y="40.924800000000005" width="2.3040000000000003" height="2.9952000000000005" rx="1" fill="rgba(10,14,23,0.7)"/><rect x="41.43085714285714" y="40.924800000000005" width="2.3040000000000003" height="2.9952000000000005" rx="1" fill="rgba(10,14,23,0.7)"/><rect x="45.95657142857143" y="40.924800000000005" width="2.3040000000000003" height="2.9952000000000005" rx="1" fill="rgba(10,14,23,0.7)"/>
  <polygon points="33.408,26.639999999999997 33.408,39.599999999999994 41.184,33.12" fill="rgba(255,255,255,0.95)"/>
  <text x="36" y="56.16" font-family="Arial,Helvetica,sans-serif" font-size="9.36" font-weight="bold" fill="white" text-anchor="middle" dominant-baseline="middle">CV</text>
</svg>