<svg xmlns="http://www.w3.org/2000/svg" width="96" height="96" viewBox="0 0 96 96">
  <defs>
    <linearGradient id="bg" x1="0" y1="0" x2="96" y2="96" gradientUnits="userSpaceOnUse">
      <stop offset="0%" stop-color="#0a0e17"/>
      <stop offset="100%" stop-color="#12122a"/>
    </linearGradient>
    <radialGradient id="glow" cx="50%" cy="50%" r="45%">
      <stop offset="0%" stop-color="rgba(255,60,172,0.18)"/>
      <stop offset="50%" stop-color="rgba(0,245,212,0.08)"/>
      <stop offset="100%" stop-color="transparent"/>
    </radialGradient>
    <linearGradient id="film" x1="26.88" y1="27.839999999999996" x2="69.12" y2="60.48" gradientUnits="userSpaceOnUse">
      <stop offset="0%" stop-color="#ff3cac"/>
      <stop offset="50%" stop-color="#784ba0"/>
      <stop offset="100%" stop-color="#00f5d4"/>
    </linearGradient>
  </defs>
  <rect width="96" height="96" rx="19.200000000000003" fill="url(#bg)"/>
  <rect width="96" height="96" rx="19.200000000000003" fill="url(#glow)"/>
  <rect x="26.88" y="27.839999999999996" width="42.24" height="32.64" rx="2.88" fill="url(#film)"/>
  <rect x="31.104" y="29.759999999999998" width="3.072" height="3.9936000000000003" rx="1" fill="rgba(10,14,23,0.7)"/><rect x="37.138285714285715" y="29.759999999999998" width="3.072" height="3.9936000000000003" rx="1" fill="rgba(10,14,23,0.7)"/><rect x="43.17257142857143" y="29.759999999999998" width="3.072" height="3.9936000000000003" rx="1" fill="rgba(10,14,23,0.7)"/><rect x="49.206857142857146" y="29.759999999999998" width="3.072" height="3.9936000000000003" rx="1" fill="rgba(10,14,23,0.7)"/><rect x="55.24114285714286" y="29.759999999999998" width="3.072" height="3.9936000000000003" rx="1" fill="rgba(10,14,23,0.7)"/><rect x="61.27542857142858" y="29.759999999999998" width="3.072" height="3.9936000000000003" rx="1" fill="rgba(10,14,23,0.7)"/>
  <rect x="31.104" y="54.566399999999994" width="3.072" height="3.9936000000000003" rx="1" fill="rgba(10,14,23,0.7)"/><rect x="37.138285714285715" y="54.566399999999994" width="3.072" height="3.9936000000000003" rx="1" fill="rgba(10,14,23,0.7)"/><rect x="43.17257142857143" y="54.566399999999994" width="3.072" height="3.9936000000000003" rx="1" fill="rgba(10,14,23,0.7)"/><rect x="49.206857142857146" y="54.566399999999994" width="3.072" height="3.9936000000000003" rx="1" fill="rgba(10,14,23,0.7)"/><rect x="55.24114285714286" y="54.566399999999994" width="3.072" height="3.9936000000000003" rx="1" fill="rgba(10,14,23,0.7)"/><rect x="61.27542857142858" y="54.566399999999994" width="3.072" height="3.9936000000000003" rx="1" fill="rgba(10,14,23,0.7)"/>
  <polygon points="44.544,35.519999999999996 44.544,52.8 54.912,44.16" fill="rgba(255,255,255,0.95)"/>
  <text x="48" y="74.88" font-family="Arial,Helvetica,sans-serif" font-size="12.48" font-weight="bold" fill="white" text-anchor="middle" dominant-baseline="middle">CV</text>
</svg>